PathFileType	4	(X/Y/Z)	 0.11m3min.trc
DataRate	CameraRate	NumFrames	NumMarkers	Units	OrigDataRate	OrigDataStartFrame	OrigNumFrames
200	200	11	35	m	200	626	1000
Frame#	Time	C7			LSH			RSH			MAN			RASI			LASI			HIPR			HIPL			RPSI			LPSI			COX			RTHI1			RTHI2			RTHI3			RTHI4			RSHA1			RSHA2			RSHA3			RSHA4			RHEEL			RMET5			RMET1			RTOE			LTHI1			LTHI2			LTHI3			LTHI4			LSHA1			LSHA2			LSHA3			LSHA4			LHEEL			LMET5			LMET1			LTOE			
		X1	Y1	Z1	X2	Y2	Z2	X3	Y3	Z3	X4	Y4	Z4	X5	Y5	Z5	X6	Y6	Z6	X7	Y7	Z7	X8	Y8	Z8	X9	Y9	Z9	X10	Y10	Z10	X11	Y11	Z11	X12	Y12	Z12	X13	Y13	Z13	X14	Y14	Z14	X15	Y15	Z15	X16	Y16	Z16	X17	Y17	Z17	X18	Y18	Z18	X19	Y19	Z19	X20	Y20	Z20	X21	Y21	Z21	X22	Y22	Z22	X23	Y23	Z23	X24	Y24	Z24	X25	Y25	Z25	X26	Y26	Z26	X27	Y27	Z27	X28	Y28	Z28	X29	Y29	Z29	X30	Y30	Z30	X31	Y31	Z31	X32	Y32	Z32	X33	Y33	Z33	X34	Y34	Z34	X35	Y35	Z35	
626	3.1300	-0.343156	1.473285	-0.557753	-0.279853	1.452772	-0.715943	-0.291833	1.457158	-0.388870	-0.228411	1.432507	-0.553693	-0.208064	1.029617	-0.469539	-0.203445	1.043883	-0.662082	-0.248594	1.078680	-0.424272	-0.248039	1.093161	-0.684077	-0.345331	1.083098	-0.493110	-0.339235	1.092986	-0.610522	-0.350665	1.088198	-0.554355	-0.305792	0.828275	-0.377070	-0.292466	0.770167	-0.376206	-0.229240	0.783099	-0.388472	-0.236206	0.843909	-0.391455	-0.347479	0.397311	-0.361152	-0.354083	0.354772	-0.362516	-0.293371	0.352132	-0.365106	-0.290792	0.392772	-0.367204	-0.392801	0.187318	-0.414676	-0.273401	0.083066	-0.352291	-0.236794	0.083795	-0.419226	-0.218153	0.065029	-0.409092	-0.293328	0.849500	-0.738560	-0.278636	0.789473	-0.742857	-0.216205	0.798035	-0.728914	-0.222123	0.857792	-0.722877	-0.349500	0.370239	-0.757316	-0.359428	0.331014	-0.753747	-0.297052	0.322487	-0.750008	-0.295689	0.366583	-0.755238	-0.400378	0.187972	-0.710166	-0.272110	0.091870	-0.768971	-0.240043	0.090729	-0.704271	-0.219847	0.072843	-0.712618	
627	3.1350	-0.342475	1.472235	-0.558052	-0.278679	1.451542	-0.716215	-0.291455	1.455871	-0.389027	-0.228145	1.431110	-0.553766	-0.208623	1.028265	-0.469651	-0.203780	1.042721	-0.662109	-0.249144	1.077279	-0.424449	-0.248183	1.092070	-0.684127	-0.345770	1.081862	-0.493333	-0.339499	1.091927	-0.610810	-0.350953	1.087076	-0.554556	-0.305572	0.826936	-0.377219	-0.292065	0.768852	-0.376574	-0.229074	0.781810	-0.389079	-0.236086	0.842609	-0.391998	-0.347054	0.396045	-0.361421	-0.353680	0.353546	-0.362679	-0.292997	0.350847	-0.365660	-0.290398	0.391523	-0.367722	-0.392912	0.186064	-0.414700	-0.272860	0.081900	-0.353297	-0.236693	0.082901	-0.420443	-0.217940	0.064204	-0.410448	-0.292986	0.848229	-0.738831	-0.278268	0.788186	-0.743008	-0.215954	0.796748	-0.728598	-0.221918	0.856483	-0.722592	-0.348720	0.368817	-0.757227	-0.358616	0.329609	-0.753640	-0.296241	0.321153	-0.749718	-0.294914	0.365247	-0.754997	-0.399528	0.186725	-0.709796	-0.271320	0.090566	-0.768682	-0.239124	0.089461	-0.704062	-0.218904	0.071651	-0.712429	
628	3.1400	-0.341781	1.470930	-0.558350	-0.277491	1.450052	-0.716483	-0.291046	1.454329	-0.389190	-0.227732	1.429559	-0.553844	-0.209177	1.026674	-0.469766	-0.204124	1.041309	-0.662130	-0.249681	1.075657	-0.424637	-0.248332	1.090743	-0.684187	-0.346220	1.080416	-0.493561	-0.339764	1.090635	-0.611138	-0.351256	1.085729	-0.554777	-0.305434	0.825380	-0.377433	-0.291691	0.767314	-0.377015	-0.228970	0.780300	-0.389653	-0.236024	0.841097	-0.392520	-0.346636	0.394544	-0.361698	-0.353284	0.352074	-0.362867	-0.292629	0.349326	-0.366197	-0.290018	0.390036	-0.368232	-0.393038	0.184579	-0.414737	-0.272324	0.080432	-0.354378	-0.236576	0.081780	-0.421698	-0.217714	0.063143	-0.411864	-0.292698	0.846670	-0.739093	-0.277937	0.786626	-0.743153	-0.215741	0.795201	-0.728300	-0.221759	0.854917	-0.722322	-0.347966	0.367173	-0.757112	-0.357829	0.327980	-0.753488	-0.295450	0.319590	-0.749447	-0.294161	0.363682	-0.754775	-0.398653	0.185341	-0.709353	-0.270756	0.088814	-0.768264	-0.238437	0.087755	-0.703770	-0.218244	0.069979	-0.712165	
629	3.1450	-0.341085	1.469359	-0.558641	-0.276292	1.448307	-0.716744	-0.290621	1.452533	-0.389356	-0.227166	1.427854	-0.553927	-0.209729	1.024851	-0.469883	-0.204482	1.039637	-0.662148	-0.250206	1.073822	-0.424842	-0.248490	1.089167	-0.684252	-0.346642	1.078723	-0.493784	-0.340031	1.089104	-0.611505	-0.351581	1.084162	-0.555020	-0.305380	0.823599	-0.377711	-0.291383	0.765545	-0.377500	-0.228926	0.778586	-0.390190	-0.236021	0.839375	-0.393017	-0.346220	0.392818	-0.361975	-0.352901	0.350353	-0.363089	-0.292264	0.347576	-0.366718	-0.289646	0.388291	-0.368777	-0.393166	0.182854	-0.414803	-0.271826	0.078684	-0.355521	-0.236460	0.080445	-0.422994	-0.217489	0.061844	-0.413339	-0.292456	0.844847	-0.739350	-0.277637	0.784803	-0.743290	-0.215558	0.793410	-0.728022	-0.221648	0.853110	-0.722073	-0.347248	0.365316	-0.756966	-0.357068	0.326139	-0.753292	-0.294680	0.317798	-0.749189	-0.293435	0.361890	-0.754567	-0.397790	0.183814	-0.708861	-0.270393	0.086663	-0.767713	-0.237987	0.085632	-0.703383	-0.217867	0.067863	-0.711820	
630	3.1500	-0.340373	1.467518	-0.558923	-0.275085	1.446307	-0.716999	-0.290188	1.450482	-0.389534	-0.226492	1.425978	-0.553999	-0.210282	1.022800	-0.470003	-0.204850	1.037712	-0.662168	-0.250733	1.071767	-0.425058	-0.248655	1.087336	-0.684323	-0.347069	1.076812	-0.494031	-0.340295	1.087325	-0.611849	-0.351917	1.082357	-0.555281	-0.305411	0.821592	-0.378047	-0.291184	0.763553	-0.377995	-0.228935	0.776667	-0.390690	-0.236084	0.837445	-0.393482	-0.345805	0.390875	-0.362240	-0.352528	0.348398	-0.363349	-0.291905	0.345588	-0.367230	-0.289276	0.386283	-0.369349	-0.393320	0.180904	-0.414909	-0.271391	0.076662	-0.356735	-0.236379	0.078883	-0.424323	-0.217291	0.060327	-0.414862	-0.292260	0.842759	-0.739587	-0.277364	0.782728	-0.743416	-0.215396	0.791389	-0.727765	-0.221582	0.851079	-0.721847	-0.346565	0.363257	-0.756779	-0.356347	0.324079	-0.753053	-0.293950	0.315779	-0.748941	-0.292742	0.359858	-0.754366	-0.396975	0.182127	-0.708344	-0.270201	0.084188	-0.767036	-0.237763	0.083148	-0.702892	-0.217746	0.065368	-0.711393	
631	3.1550	-0.339658	1.465404	-0.559197	-0.273876	1.444049	-0.717245	-0.289738	1.448175	-0.389710	-0.225707	1.423920	-0.554060	-0.210837	1.020523	-0.470130	-0.205226	1.035536	-0.662191	-0.251261	1.069501	-0.425288	-0.248831	1.085246	-0.684400	-0.347514	1.074713	-0.494309	-0.340556	1.085307	-0.612132	-0.352270	1.080315	-0.555566	-0.305518	0.819362	-0.378439	-0.291089	0.761335	-0.378500	-0.228984	0.774536	-0.391153	-0.236214	0.835309	-0.393915	-0.345391	0.388715	-0.362512	-0.352170	0.346234	-0.363634	-0.291560	0.343365	-0.367736	-0.288911	0.384032	-0.369942	-0.393517	0.178760	-0.415068	-0.271076	0.074388	-0.358002	-0.236362	0.077107	-0.425681	-0.217161	0.058597	-0.416421	-0.292118	0.840414	-0.739796	-0.277113	0.780411	-0.743531	-0.215250	0.789160	-0.727533	-0.221558	0.848835	-0.721646	-0.345916	0.361002	-0.756545	-0.355675	0.321813	-0.752764	-0.293270	0.313530	-0.748697	-0.292084	0.357593	-0.754171	-0.396248	0.180252	-0.707822	-0.270153	0.081460	-0.766239	-0.237753	0.080358	-0.702290	-0.217850	0.062565	-0.710878	
632	3.1600	-0.338941	1.463022	-0.559464	-0.272667	1.441533	-0.717481	-0.289279	1.445615	-0.389869	-0.224877	1.421624	-0.554126	-0.211392	1.018022	-0.470265	-0.205608	1.033100	-0.662218	-0.251783	1.067020	-0.425534	-0.249016	1.082895	-0.684484	-0.347969	1.072397	-0.494604	-0.340818	1.083041	-0.612362	-0.352630	1.078035	-0.555866	-0.305703	0.816903	-0.378883	-0.291092	0.758887	-0.379007	-0.229069	0.772201	-0.391584	-0.236409	0.832964	-0.394317	-0.344972	0.386344	-0.362790	-0.351819	0.343866	-0.363945	-0.291226	0.340914	-0.368242	-0.288540	0.381534	-0.370563	-0.393787	0.176443	-0.415298	-0.270919	0.071872	-0.359321	-0.236453	0.075109	-0.427057	-0.217139	0.056650	-0.418008	-0.292023	0.837824	-0.739972	-0.276882	0.777864	-0.743631	-0.215118	0.786716	-0.727328	-0.221570	0.846388	-0.721475	-0.345311	0.358547	-0.756270	-0.355059	0.319353	-0.752423	-0.292654	0.311052	-0.748447	-0.291463	0.355107	-0.753977	-0.395639	0.178173	-0.707298	-0.270225	0.078553	-0.765349	-0.237929	0.077325	-0.701580	-0.218141	0.059551	-0.710271	
633	3.1650	-0.338214	1.460371	-0.559712	-0.271464	1.438755	-0.717706	-0.288808	1.442802	-0.390021	-0.224080	1.419032	-0.554193	-0.211951	1.015300	-0.470403	-0.205999	1.030408	-0.662254	-0.252313	1.064327	-0.425793	-0.249213	1.080274	-0.684576	-0.348433	1.069835	-0.494922	-0.341086	1.080527	-0.612541	-0.353007	1.075520	-0.556181	-0.305955	0.814209	-0.379380	-0.291179	0.756206	-0.379523	-0.229189	0.769660	-0.391980	-0.236664	0.830412	-0.394695	-0.344541	0.383772	-0.363071	-0.351478	0.341298	-0.364267	-0.290902	0.338233	-0.368752	-0.288159	0.378788	-0.371218	-0.394160	0.173969	-0.415607	-0.270971	0.069132	-0.360680	-0.236692	0.072887	-0.428454	-0.217274	0.054502	-0.419611	-0.291975	0.835003	-0.740116	-0.276670	0.775090	-0.743714	-0.214999	0.784074	-0.727156	-0.221619	0.843739	-0.721336	-0.344749	0.355890	-0.755929	-0.354511	0.316701	-0.752021	-0.292111	0.308346	-0.748181	-0.290889	0.352397	-0.753772	-0.395213	0.175885	-0.706792	-0.270401	0.075521	-0.764396	-0.238271	0.074110	-0.700767	-0.218585	0.056402	-0.709564	
634	3.1700	-0.337481	1.457460	-0.559946	-0.270275	1.435708	-0.717921	-0.288316	1.439735	-0.390154	-0.223318	1.416145	-0.554264	-0.212522	1.012348	-0.470546	-0.206391	1.027462	-0.662301	-0.252842	1.061414	-0.426066	-0.249422	1.077387	-0.684677	-0.348928	1.067054	-0.495262	-0.341365	1.077765	-0.612670	-0.353393	1.072748	-0.556511	-0.306262	0.811265	-0.379925	-0.291330	0.753293	-0.380052	-0.229338	0.766905	-0.392344	-0.236975	0.827648	-0.395054	-0.344090	0.381011	-0.363349	-0.351151	0.338558	-0.364579	-0.290595	0.335322	-0.369268	-0.287761	0.375819	-0.371831	-0.394681	0.171348	-0.415979	-0.271267	0.066176	-0.362080	-0.237131	0.070442	-0.429861	-0.217620	0.052166	-0.421214	-0.291970	0.831951	-0.740224	-0.276473	0.772090	-0.743774	-0.214890	0.781241	-0.727021	-0.221695	0.840886	-0.721230	-0.344223	0.353047	-0.755527	-0.354042	0.313873	-0.751555	-0.291654	0.305414	-0.747893	-0.290364	0.349459	-0.753550	-0.394999	0.173375	-0.706293	-0.270672	0.072409	-0.763419	-0.238763	0.070780	-0.699870	-0.219142	0.053193	-0.708768	
635	3.1750	-0.336765	1.454293	-0.560179	-0.269101	1.432398	-0.718123	-0.287801	1.436418	-0.390251	-0.222591	1.412961	-0.554340	-0.213097	1.009166	-0.470698	-0.206790	1.024251	-0.662360	-0.253378	1.058285	-0.426350	-0.249649	1.074225	-0.684788	-0.349438	1.064018	-0.495620	-0.341658	1.074752	-0.612786	-0.353802	1.069729	-0.556856	-0.306617	0.808062	-0.380515	-0.291502	0.750141	-0.380605	-0.229505	0.763943	-0.392680	-0.237329	0.824665	-0.395404	-0.343613	0.378073	-0.363633	-0.350834	0.335655	-0.364877	-0.290305	0.332184	-0.369795	-0.287343	0.372631	-0.372419	-0.395377	0.168595	-0.416408	-0.271838	0.063025	-0.363501	-0.237819	0.067781	-0.431280	-0.218226	0.049640	-0.422809	-0.292003	0.828671	-0.740303	-0.276297	0.768869	-0.743820	-0.214792	0.778204	-0.726925	-0.221794	0.837822	-0.721153	-0.343749	0.350025	-0.755088	-0.353657	0.310879	-0.751031	-0.291285	0.302265	-0.747570	-0.289888	0.346304	-0.753297	-0.395023	0.170636	-0.705789	-0.271044	0.069238	-0.762452	-0.239390	0.067368	-0.698915	-0.219796	0.049951	-0.707886	
636	3.1800	-0.336052	1.450872	-0.560391	-0.267953	1.428828	-0.718316	-0.287286	1.432842	-0.390368	-0.221901	1.409480	-0.554421	-0.213679	1.005751	-0.470856	-0.207196	1.020774	-0.662431	-0.253918	1.054931	-0.426644	-0.249894	1.070792	-0.684909	-0.349938	1.060691	-0.495965	-0.341972	1.071468	-0.612961	-0.354225	1.066446	-0.557208	-0.307010	0.804597	-0.381150	-0.291679	0.746743	-0.381186	-0.229687	0.760761	-0.392994	-0.237719	0.821454	-0.395750	-0.343100	0.374961	-0.363930	-0.350533	0.332585	-0.365174	-0.290038	0.328811	-0.370347	-0.286897	0.369207	-0.372996	-0.396274	0.165700	-0.416872	-0.272696	0.059699	-0.364935	-0.238799	0.064898	-0.432711	-0.219129	0.046931	-0.424394	-0.292060	0.825168	-0.740356	-0.276141	0.765420	-0.743852	-0.214699	0.774957	-0.726871	-0.221908	0.834541	-0.721105	-0.343324	0.346824	-0.754615	-0.353361	0.307727	-0.750462	-0.291015	0.298884	-0.747200	-0.289465	0.342922	-0.753004	-0.395301	0.167687	-0.705265	-0.271527	0.066007	-0.761527	-0.240139	0.063900	-0.697939	-0.220536	0.046695	-0.706956	
